<svg xmlns="http://www.w3.org/2000/svg" fill="none" viewBox="0 0 200 50" height="50" width="200">
<path fill="black" d="M39.2008 28.212C39.8807 28.2115 40.5546 28.3425 41.1855 28.5966C41.7726 28.8324 42.3074 29.1817 42.7582 29.6256C43.1696 30.0269 43.4876 30.5141 43.6905 31.0518L41.9245 31.8777L41.9235 31.8738L41.9157 31.8777C41.7121 31.3286 41.3435 30.8558 40.8604 30.5247C40.3707 30.1895 39.7913 30.0101 39.1989 30.0092H39.0837C38.4791 30.0098 37.8851 30.1715 37.3636 30.4788C36.8411 30.7944 36.4214 31.2553 36.155 31.8045C35.5835 33.058 35.5835 34.4979 36.155 35.7514C36.4193 36.3041 36.8394 36.7678 37.3636 37.0849C37.8851 37.3922 38.4791 37.5539 39.0837 37.5545H39.1452C39.1644 37.5549 39.1836 37.5554 39.2028 37.5555C39.7939 37.5546 40.3723 37.3743 40.8604 37.039C41.3434 36.7079 41.7121 36.235 41.9157 35.686L41.9235 35.6899L41.9245 35.686L43.6905 36.5119C43.4869 37.0498 43.1684 37.537 42.7563 37.9381C42.3054 38.3821 41.7707 38.7323 41.1835 38.9681C39.6157 39.5806 37.8548 39.4553 36.3893 38.6274C35.5724 38.1508 34.9018 37.4592 34.4505 36.6281C33.5142 34.841 33.5143 32.7081 34.4505 30.921C34.8976 30.0933 35.5641 29.4047 36.3766 28.9305C37.1928 28.4592 38.1186 28.2112 39.0602 28.212C39.0872 28.212 39.1143 28.2126 39.1413 28.2129C39.161 28.2127 39.1811 28.212 39.2008 28.212Z"></path>
<path fill="black" d="M131.253 28.9305C132.723 28.1089 134.484 27.9866 136.053 28.5966C136.64 28.8316 137.174 29.1811 137.624 29.6256C138.036 30.0269 138.355 30.514 138.559 31.0518L136.808 31.8924C136.608 31.3384 136.24 30.8606 135.756 30.5247C135.243 30.1738 134.632 29.9931 134.011 30.0092C133.385 29.9989 132.769 30.1614 132.229 30.4788C131.707 30.7944 131.287 31.2553 131.021 31.8045C130.725 32.4188 130.578 33.0939 130.59 33.7755C130.573 34.4591 130.721 35.1371 131.021 35.7514C131.295 36.3041 131.722 36.767 132.251 37.0849C132.793 37.4014 133.412 37.5637 134.039 37.5545C134.568 37.5598 135.09 37.4463 135.569 37.2226C136.018 37.0152 136.404 36.69 136.683 36.2815C136.961 35.8667 137.106 35.3761 137.097 34.8767V34.8308H133.996V33.1654H139.066V34.2431C139.093 35.2104 138.849 36.1663 138.363 37.0029C137.92 37.7461 137.278 38.3501 136.51 38.7474C135.747 39.1426 134.899 39.3475 134.039 39.3429C133.07 39.3544 132.115 39.1037 131.276 38.6186L130.982 38.439C130.295 37.9771 129.727 37.3567 129.327 36.6281C128.386 34.8421 128.386 32.707 129.327 30.921C129.774 30.0934 130.441 29.4047 131.253 28.9305Z"></path>
<path fill="black" d="M72.4073 39.1877H70.2527L69.4864 36.8692H65.3257L64.5438 39.1877H62.4156L66.136 28.3877H68.6849L72.4073 39.1877ZM65.89 35.1178L68.9368 35.1217L67.4109 30.5696L65.89 35.1178Z" clip-rule="evenodd" fill-rule="evenodd"></path>
<path fill="black" d="M122.92 28.3867C123.593 28.3745 124.261 28.5113 124.876 28.786C125.424 29.0337 125.886 29.4397 126.201 29.9516C126.526 30.5091 126.688 31.1459 126.671 31.7908C126.69 32.4586 126.508 33.1173 126.149 33.6808C125.803 34.2068 125.303 34.614 124.717 34.8464L127.192 39.177H124.962L122.733 35.193H120.878V39.1877H118.909V28.3867H122.92ZM120.878 33.4563H123.125C123.531 33.4355 123.919 33.2748 124.223 32.9994C124.861 32.319 124.861 31.2607 124.223 30.5803C123.919 30.3055 123.531 30.1455 123.125 30.1254H120.878V33.4563Z" clip-rule="evenodd" fill-rule="evenodd"></path>
<path fill="black" d="M15.2012 39.177H13.2312V28.3877H15.2012V39.177Z"></path>
<path fill="black" d="M23.8613 35.3092V28.3877H25.8304V39.177H24.2821L19.1539 32.1227V39.177H17.1849V28.3877H18.7215L23.8613 35.3092Z"></path>
<path fill="black" d="M47.6511 37.4383H52.2696V39.177H45.682V28.3877H47.6511V37.4383Z"></path>
<path fill="black" d="M61.4218 30.1254H56.2233V32.892H61.1338V34.6287H56.2233V37.4383H61.4218V39.177H54.2543V28.3877H61.4218V30.1254Z"></path>
<path fill="black" d="M80.0756 35.3092V28.3877H82.0446V39.177H80.4953L75.3682 32.1227V39.177H73.3982V28.3877H74.9347L80.0756 35.3092Z"></path>
<path fill="black" d="M97.1449 30.1254H91.9465V32.892H96.856V34.6287H91.9465V37.4383H97.1449V39.177H89.9765V28.3877H97.1449V30.1254Z"></path>
<path fill="black" d="M105.806 35.3092V28.3877H107.775V39.177H106.226L101.097 32.1227V39.177H99.1286V28.3877H100.663L105.806 35.3092Z"></path>
<path fill="black" d="M116.927 30.1254H111.728V32.892H116.636V34.6287H111.728V37.4383H116.927V39.177H109.757V28.3877H116.927V30.1254Z"></path>
<path fill="black" d="M144.686 32.399L147.06 28.3877H149.306L145.684 34.3827V39.177H143.702V34.3983L140.066 28.3877H142.31L144.686 32.399Z"></path>
<path fill="black" d="M142.612 11.3734C144.4 10.4073 146.556 10.4073 148.345 11.3734C149.191 11.8434 149.894 12.5346 150.378 13.3727C151.372 15.133 151.372 17.2853 150.378 19.0456C149.893 19.8841 149.19 20.5765 148.345 21.0508C146.558 22.0247 144.398 22.0247 142.612 21.0508C141.768 20.5775 141.068 19.8845 140.587 19.0456C139.602 17.2828 139.602 15.1354 140.587 13.3727C141.067 12.534 141.767 11.8425 142.612 11.3734ZM147.354 12.9266C146.188 12.28 144.77 12.28 143.604 12.9266C143.053 13.2455 142.6 13.7108 142.295 14.2708C141.656 15.4844 141.656 16.9349 142.295 18.1484C142.598 18.7121 143.051 19.1808 143.604 19.5015C144.77 20.148 146.188 20.148 147.354 19.5015C147.906 19.1792 148.359 18.7109 148.663 18.1484C149.302 16.9349 149.302 15.4844 148.663 14.2708C148.358 13.7118 147.905 13.2467 147.354 12.9266Z" clip-rule="evenodd" fill-rule="evenodd"></path>
<path fill="black" d="M130.174 10.8238C130.847 10.8114 131.514 10.9473 132.128 11.2221C132.677 11.4677 133.14 11.8741 133.454 12.3877C133.78 12.9441 133.943 13.5813 133.925 14.2259C133.942 14.8671 133.776 15.4999 133.447 16.0505C133.128 16.5609 132.667 16.9675 132.122 17.222C131.514 17.5002 130.852 17.6387 130.183 17.6271H128.127V21.6092H126.149V10.8238H130.174ZM128.118 15.8914H130.205C130.673 15.9135 131.131 15.7491 131.478 15.4345C132.115 14.7549 132.115 13.697 131.478 13.0174C131.174 12.742 130.785 12.5814 130.379 12.5605H128.118V15.8914Z" clip-rule="evenodd" fill-rule="evenodd"></path>
<path fill="black" d="M186.043 10.8238C186.716 10.8114 187.383 10.9472 187.997 11.2221C188.546 11.4689 189.008 11.8752 189.322 12.3877C189.648 12.9443 189.81 13.5815 189.792 14.2259C189.811 14.8936 189.629 15.5516 189.27 16.1149C188.924 16.641 188.423 17.0479 187.837 17.2806L190.313 21.6092H188.094L185.864 17.6271H184.012V21.6092H182.042V10.8238H186.043ZM184.012 15.8914H186.082C186.55 15.9135 187.008 15.7491 187.355 15.4345C187.993 14.755 187.992 13.697 187.355 13.0174C187.051 12.742 186.663 12.5814 186.257 12.5605H184.012V15.8914Z" clip-rule="evenodd" fill-rule="evenodd"></path>
<path fill="black" d="M137.865 21.6072H135.896V10.8238H137.865V21.6072Z"></path>
<path fill="black" d="M159.781 17.7443V10.8238H161.75V21.6072H160.2L155.075 14.5579V21.6072H153.108V10.8238H154.642L159.781 17.7443Z"></path>
<path fill="black" d="M170.911 12.5605H165.714V15.3261H170.622V17.0629H165.714V19.8705H170.911V21.6072H163.745V10.8238H170.911V12.5605Z"></path>
<path fill="black" d="M180.06 12.5605H174.863V15.3261H179.769V17.0629H174.863V19.8705H180.06V21.6072H172.894V10.8238H180.06V12.5605Z"></path>
<path fill="black" d="M34.5296 11.0132C35.2094 11.0127 35.8833 11.1428 36.5142 11.3969C37.1015 11.6327 37.636 11.9829 38.0869 12.4268C38.4984 12.8283 38.8173 13.3152 39.0202 13.8531L37.2532 14.678L37.2523 14.6751L37.2445 14.678C37.0408 14.1289 36.6723 13.656 36.1892 13.3249C35.6994 12.9897 35.1202 12.8104 34.5276 12.8095C34.5098 12.8095 34.4917 12.8101 34.4739 12.8105H34.4651C34.4479 12.8102 34.4306 12.8095 34.4134 12.8095C33.8086 12.8101 33.214 12.9726 32.6923 13.28C32.1699 13.5956 31.7501 14.0557 31.4837 14.6048C30.9122 15.8583 30.9122 17.2981 31.4837 18.5517C31.748 19.1045 32.1681 19.568 32.6923 19.8852C33.214 20.1926 33.8086 20.3552 34.4134 20.3558C34.4306 20.3557 34.4479 20.3551 34.4651 20.3548H34.4739C34.4933 20.3552 34.5132 20.3557 34.5325 20.3558C35.1235 20.3548 35.7011 20.1755 36.1892 19.8403C36.6723 19.5092 37.0408 19.0364 37.2445 18.4872L37.2523 18.4902L37.2532 18.4872L39.0202 19.3122C38.8167 19.8503 38.4972 20.3372 38.085 20.7384C37.6341 21.1824 37.0995 21.5326 36.5123 21.7684C34.9445 22.3809 33.1845 22.2555 31.719 21.4277C30.902 20.9511 30.2305 20.2596 29.7792 19.4283C28.8431 17.6413 28.843 15.5083 29.7792 13.7213C30.2263 12.8936 30.8929 12.205 31.7053 11.7308C32.5214 11.2595 33.4475 11.0125 34.389 11.0132H34.5296Z"></path>
<path fill="black" d="M65.5044 11.7386C67.2927 10.7733 69.4475 10.7733 71.2358 11.7386C72.082 12.2078 72.7849 12.8983 73.2693 13.7359C73.7698 14.5969 74.0279 15.578 74.0151 16.5738C74.0278 17.5695 73.7698 18.55 73.2693 19.4108C72.7843 20.2502 72.0819 20.9435 71.2358 21.4169C69.4497 22.3909 67.2905 22.3909 65.5044 21.4169C64.66 20.9436 63.96 20.25 63.4777 19.4108C62.9822 18.5482 62.7269 17.5685 62.7387 16.5738C62.7269 15.579 62.9821 14.5986 63.4777 13.7359C63.9591 12.8982 64.6595 12.2073 65.5044 11.7386ZM70.244 13.2878C69.078 12.6419 67.6612 12.6418 66.4952 13.2878C65.9442 13.6087 65.4917 14.0744 65.1861 14.6341C64.8619 15.2282 64.6971 15.897 64.7078 16.5738C64.6982 17.2503 64.863 17.9182 65.1861 18.5126C65.489 19.0765 65.9419 19.5458 66.4952 19.8676C67.6611 20.5137 69.078 20.5135 70.244 19.8676C70.7974 19.5458 71.2512 19.0766 71.5541 18.5126C71.8772 17.9182 72.042 17.2503 72.0324 16.5738C72.0431 15.897 71.8783 15.2282 71.5541 14.6341C71.2484 14.0743 70.7951 13.6087 70.244 13.2878Z" clip-rule="evenodd" fill-rule="evenodd"></path>
<path fill="black" d="M86.34 11.7386C88.1289 10.7725 90.2846 10.7725 92.0734 11.7386C92.9193 12.2084 93.6218 12.8988 94.1069 13.7359C94.6074 14.5968 94.8654 15.5772 94.8528 16.5729C94.8655 17.5687 94.6075 18.5498 94.1069 19.4108C93.6209 20.2495 92.9188 20.9426 92.0734 21.4169C90.2866 22.3909 88.1269 22.3909 86.34 21.4169C85.4963 20.9435 84.7968 20.2499 84.3153 19.4108C83.8187 18.5485 83.5634 17.5678 83.5763 16.5729C83.5635 15.578 83.8188 14.5981 84.3153 13.7359C84.796 12.8983 85.4958 12.2075 86.34 11.7386ZM91.0826 13.2878C89.9167 12.6414 88.4997 12.6415 87.3338 13.2878C86.7822 13.6081 86.3287 14.0738 86.0237 14.6341C85.6996 15.2281 85.5348 15.8962 85.5454 16.5729C85.5358 17.2495 85.7005 17.918 86.0237 18.5126C86.326 19.0771 86.7799 19.5464 87.3338 19.8676C88.4997 20.514 89.9167 20.5141 91.0826 19.8676C91.6354 19.5452 92.0882 19.0761 92.3917 18.5126C92.7149 17.918 92.8796 17.2495 92.87 16.5729C92.8806 15.8962 92.7158 15.2281 92.3917 14.6341C92.0855 14.0749 91.6331 13.6093 91.0826 13.2878Z" clip-rule="evenodd" fill-rule="evenodd"></path>
<path fill="black" d="M98.868 11.7327C100.337 10.9112 102.097 10.7888 103.666 11.3988C104.251 11.6345 104.785 11.9831 105.235 12.4258C105.646 12.8277 105.963 13.3146 106.167 13.8521L104.418 14.6926C104.217 14.139 103.85 13.6614 103.366 13.3249C102.854 12.9744 102.244 12.7937 101.624 12.8095C101 12.8 100.385 12.963 99.8483 13.281C99.3249 13.5955 98.9048 14.0568 98.6396 14.6067C98.3438 15.2194 98.1964 15.8936 98.209 16.5738C98.1953 17.258 98.3465 17.9355 98.6503 18.5487C98.9246 19.1016 99.3523 19.5643 99.8813 19.8823C100.423 20.1986 101.041 20.361 101.668 20.3518C102.196 20.3562 102.719 20.2421 103.196 20.018C103.646 19.8114 104.031 19.4869 104.31 19.0788C104.589 18.6641 104.733 18.1735 104.724 17.674V17.6311H101.626V15.9637H106.691V17.0405C106.72 18.0072 106.476 18.9629 105.988 19.7983C105.547 20.5415 104.905 21.1464 104.137 21.5438C103.374 21.937 102.527 22.1404 101.668 22.1364C100.699 22.1478 99.7443 21.8972 98.9051 21.412L98.6034 21.2353C97.917 20.7743 97.3494 20.1538 96.9507 19.4254C96.471 18.5524 96.2261 17.5699 96.24 16.5738C96.2266 15.5794 96.4681 14.5976 96.9419 13.7232C97.3884 12.8951 98.0551 12.2063 98.868 11.7327Z"></path>
<path fill="black" d="M17.9649 12.9257H15.2139V21.9724H13.2312V12.9257H10.4372V11.189H17.9649V12.9257Z"></path>
<path fill="black" d="M27.0995 12.9257H21.903V15.6903H26.8105V17.429H21.903V20.2357H27.0995V21.9724H19.9339V11.189H27.0995V12.9257Z"></path>
<path fill="black" d="M42.9652 15.8924H47.5534V11.189H49.5362V21.9724H47.5534V17.6311H42.9652V21.9724H40.9961V11.189H42.9652V15.8924Z"></path>
<path fill="black" d="M58.7869 18.1075V11.189H60.756V21.9724H59.2077L54.0844 14.923V21.9724H52.1144V11.189H53.649L58.7869 18.1075Z"></path>
<path fill="black" d="M77.9679 20.2357H82.5855V21.9724H75.9988V11.189H77.9679V20.2357Z"></path>
<path fill="black" d="M112.697 15.1983L115.071 11.189H117.315L113.697 17.1811V21.9724H111.713V17.1957L108.08 11.189H110.323L112.697 15.1983Z"></path>
</svg>
