<svg width="186" height="12" viewBox="0 0 186 12" fill="none" xmlns="http://www.w3.org/2000/svg">
<path d="M131.223 3.8612C131.223 1.91813 132.736 0.642523 135.465 0.642523C137.75 0.642523 139.826 1.51765 139.975 3.96503H138.402C138.224 2.67459 137.201 2.00712 135.273 2.00712C134.056 2.00712 132.796 2.52627 132.796 3.74254C132.796 4.27651 133.077 4.88465 134.531 5.13681L137.127 5.58179C138.536 5.81911 140.316 6.38275 140.316 8.29615C140.316 10.8325 138.135 11.767 135.762 11.767C133.181 11.767 130.897 10.788 130.897 8.01433H132.469C132.514 9.85358 134.16 10.4024 135.881 10.4024C137.542 10.4024 138.743 9.74975 138.743 8.60764C138.743 7.86601 138.313 7.28754 136.771 7.03538L134.279 6.62007C133.063 6.41241 131.223 5.9081 131.223 3.8612ZM140.568 0.90951H150.15V2.27411H146.145V11.5H144.573V2.27411H140.568V0.90951ZM150.735 6.20476C150.735 3.29756 152.529 0.642523 156.623 0.642523C160.702 0.642523 162.512 3.28273 162.512 6.20476C162.512 9.12678 160.717 11.767 156.623 11.767C152.544 11.767 150.735 9.12678 150.735 6.20476ZM156.608 2.00712C154.502 2.00712 152.307 3.14924 152.307 6.20476C152.307 8.97845 154.176 10.4024 156.623 10.4024C159.071 10.4024 160.939 8.97845 160.939 6.20476C160.939 3.47555 159.13 2.00712 156.608 2.00712ZM164.278 0.90951H170.894C172.6 0.90951 173.727 2.02196 173.727 3.72771C173.727 4.98848 173.148 5.9526 171.947 6.33825V6.36791C172.926 6.50141 173.341 7.43586 173.445 8.19233C173.534 8.80046 173.504 9.64592 173.608 10.4469C173.668 10.8919 173.771 11.2478 173.994 11.5H172.333C172.229 11.3813 172.155 11.2033 172.125 10.9957C172.006 10.2837 172.066 9.11195 171.813 8.28132C171.576 7.51003 171.116 7.00572 170.019 7.00572H165.851V11.5H164.278V0.90951ZM165.851 5.64112H170.301C171.294 5.64112 172.155 5.16647 172.155 3.96503C172.155 2.76359 171.294 2.27411 170.33 2.27411H165.851V5.64112ZM175.474 0.90951H183.988V2.27411H177.046V5.34446H183.78V6.70906H177.046V10.1354H184.136V11.5H175.474V0.90951Z" fill="white"></path>
<g clip-path="url(#clip0_8206_616)">
<path d="M13.2312 2.38863H0.5V0.499985H13.2312V2.38863ZM13.2129 7.11231H0.5V5.21953H13.2129V7.11231ZM13.2129 9.94498V11.833H0.5V9.9438L13.2129 9.94498Z" fill="white"></path>
<path d="M26.9411 2.40462L22.4031 2.4135C19.3656 2.40876 17.9381 3.66037 17.9381 6.16713C17.9381 8.67388 19.3644 9.93081 22.3954 9.93081H28.7584V11.8129L22.4019 11.823C18.1651 11.8297 16.0466 9.95073 16.0466 6.18606C16.0466 2.42138 18.1503 0.533919 22.3577 0.523666H28.7584V2.40876L26.9411 2.40462Z" fill="white"></path>
<path d="M37.9016 0.523666C42.1682 0.523666 44.302 2.40482 44.3028 6.16713C44.3036 9.92943 42.1836 11.8147 37.9428 11.823C33.7051 11.8297 31.5865 9.95073 31.5869 6.18606C31.5873 2.42138 33.6922 0.533919 37.9016 0.523666ZM42.3936 6.16594C42.3936 3.65918 40.972 2.40758 37.9457 2.41231C34.9088 2.40758 33.5049 3.65918 33.5049 6.16594C33.5049 8.6727 34.9071 9.92963 37.9381 9.92963C40.9691 9.92963 42.3936 8.67684 42.3936 6.16594Z" fill="white"></path>
<path d="M104.679 0.51544V9.92495H101.042V0.520172V0.51544H99.2212V9.92613H95.5843V0.505384V0.500061H93.7664V11.8319H104.686C106.048 11.8319 106.498 11.1079 106.498 9.95689V0.51544H104.679Z" fill="white"></path>
<path d="M75.4066 9.93087H65.8537C65.4945 9.93087 65.15 9.78754 64.896 9.53241C64.642 9.27727 64.4993 8.93124 64.4993 8.57043V0.503616H62.6802V9.07438C62.681 9.80406 62.9703 10.5036 63.4844 11.019C63.9986 11.5345 64.6956 11.8237 65.422 11.8231H75.4066V9.93087Z" fill="white"></path>
<path d="M84.5256 0.523666C88.7923 0.523666 90.926 2.40482 90.9268 6.16713C90.9276 9.92943 88.8076 11.8147 84.5668 11.823C80.3292 11.8297 78.2105 9.95073 78.2109 6.18606C78.2113 2.42138 80.3162 0.533919 84.5256 0.523666ZM89.0176 6.16594C89.0176 3.65918 87.596 2.40758 84.5697 2.41231C81.5329 2.40758 80.1289 3.65918 80.1289 6.16594C80.1289 8.6727 81.5311 9.92963 84.5621 9.92963C87.5931 9.92963 89.0176 8.67684 89.0176 6.16594Z" fill="white"></path>
<path d="M59.8646 0.523666H47.134V2.40876H59.8646V0.523666Z" fill="white"></path>
<path d="M59.8487 7.12067H48.9513V9.46772V11.813H47.134V7.12067V5.23439H59.8487V7.12067Z" fill="white"></path>
</g>
<rect x="117.869" y="0.5" width="0.913703" height="11.0033" fill="white"></rect>
<defs>
<clipPath id="clip0_8206_616">
<rect width="106" height="11.3319" fill="white" transform="translate(0.5 0.5)"></rect>
</clipPath>
</defs>
</svg>
